<svg xmlns="http://www.w3.org/2000/svg" xmlns:xlink="http://www.w3.org/1999/xlink" width="147" height="34" version="1.1"><rect id="backgroundrect" width="100%" height="100%" x="0" y="0" fill="none" stroke="none" class="" style=""/>
    <!-- Generator: Sketch 49 (51002) - http://www.bohemiancoding.com/sketch -->
    <title>Rave</title>
    <desc>Created with Sketch.</desc>
    <defs/>
    
<g class="currentLayer" style=""><title>Layer 1</title><g id="Page-1" stroke="none" stroke-width="1" fill="none" fill-rule="evenodd" class="">
        <g id="Rave-logo-flattened" fill-rule="nonzero">
            <g id="Rave">
                <g id="Logo" fill="#150F28">
                    <path d="M51.03482611331111,7.55086852328256 L51.03482611331111,7.592645563661705 C53.410251319612826,5.204321524896116 56.516576581587884,3.734583658749564 60.53652693851794,3.734583658749564 L60.53652693851794,9.797252349946255 C56.333851542306235,9.980969602427287 53.22752628033116,11.450707470095658 51.03482611331111,14.206465952951334 L51.03482611331111,30.373582497303303 L44.639450550079346,30.373582497303303 L44.639450550079346,13.496994252972591 L51.03482611331111,7.55086852328256 zM82.463528811625,4.28573535887157 L88.67617938630175,4.28573535887157 L88.67617938630175,30.373582497303303 L82.463528811625,30.373582497303303 L82.463528811625,28.536410175399517 C80.27082864460496,30.00614804306788 77.7126783990216,30.924734204019757 74.60635313704654,30.924734204019757 C67.29735252958639,30.924734204019757 61.63287702202797,24.862065531591938 61.63287702202797,17.329658940769093 C61.63287702202797,9.797252349946255 67.4800775181414,3.734583658749564 74.60635313704654,3.734583658749564 C77.7126783990216,3.734583658749564 80.45355363315997,4.653169828324984 82.463528811625,6.122907695993348 L82.463528811625,4.28573535887157 zM75.51997823200153,25.4132172383084 C78.2608534661399,25.4132172383084 80.63627867244162,24.49463102662986 82.463528811625,21.73887254377418 L82.463528811625,12.920445337764015 C80.63627867244162,10.164686854908325 78.07812842685826,9.246100643229788 75.51997823200153,9.246100643229788 C71.1345778472348,9.246100643229788 67.84552754597809,13.104162590245053 67.84552754597809,17.329658940769093 C67.84552754597809,21.73887254377418 70.95185280795312,25.4132172383084 75.51997823200153,25.4132172383084 zM120.65305694882738,4.28573535887157 L108.77593117095208,30.373582497303303 L103.1114555112137,30.373582497303303 L91.23432958115848,4.28573535887157 L97.99515532440688,4.28573535887157 L106.03505583536042,22.290024250490646 L114.07495634631397,4.28573535887157 L120.65305694882738,4.28573535887157 zM136.78748752507684,25.26161030794895 L130.67657527579487,30.943255364894867 C124.28523598107338,29.550458304540342 120.10488198316233,24.142037920901984 120.10488198316233,17.51337619325013 C120.10488198316233,9.429817895710826 125.58663265434569,3.550866425037384 133.80925815385424,3.550866425037384 C141.11825871058772,3.550866425037384 146.41728439321605,8.878666188994359 146.6000093817711,16.96222448653367 C146.6000093817711,17.88081064748556 146.6000093817711,18.431962354202028 146.41728439321605,18.983114060918496 L126.31753260856576,18.983114060918496 C126.86570757423078,22.657458704726068 129.42385792126746,25.59693444006279 134.1747081309643,25.59693444006279 C135.15680592982562,25.59693444006279 136.03117859378278,25.4886248327413 136.78748752507684,25.26161030794895 zM133.62653316529924,8.878666188994359 C129.42385792126746,8.878666188994359 127.04843256278582,11.450707470095658 126.31753260856576,15.125052113903237 L140.02190877925767,15.125052113903237 C139.65645880214763,11.266990217614612 137.46375843222097,8.878666188994359 133.62653316529924,8.878666188994359 z" id="Combined-Shape"/>
                </g>
                <path d="M24.96359918005203,14.676483128333913 C29.657326620746474,11.024085824538055 39.31299448425315,-2.0298528662230275 24.226013453864795,0.26980472443433 C17.654795036892565,1.2167225532556358 7.999127173385887,7.236414454468068 6.054582976941973,14.13538721832392 C5.040078485528738,12.290576579490889 3.9206555087454404,10.506490758079195 2.701920502635744,8.792065202087649 C0.8914827820327531,6.424770614816396 -1.1871679409786964,8.250969292077656 0.8244295314306385,10.685900861759322 C6.5239557210114185,17.65251060802558 10.48009738479199,26.039497086363937 10.48009738479199,34.494120597839355 C10.949470128861435,30.300627333306856 10.211884402674215,25.16021626430185 8.468499917455318,20.155079160117666 C9.340192185428094,20.425627140485993 10.278937622840331,20.560901105306826 11.150629890813107,20.560901105306826 C14.235079337347557,25.295490229122677 18.928806778042002,29.353709528834344 24.226013453864795,31.247545188506024 C29.05384738561814,33.073743865767256 35.49095931153147,31.99155204574727 32.875882558339825,24.686757336702257 C31.467764326131487,20.696175070127666 28.18215516837202,17.179051680426 24.96359918005203,14.676483128333913 zM25.634131686073133,1.9607294206422239 C34.01578780843036,1.0814485782894678 25.030652450944785,10.888811808990575 22.080309495469237,12.715010486251828 C19.331126251218677,11.024085824538055 15.911410551673669,9.536072059328902 12.558748123021445,9.941894004518062 C14.97266506353479,7.033503507236816 20.806297754319786,2.50182532557956 25.634131686073133,1.9607294206422239 zM12.49169485212866,12.106277593831408 C14.771505352309774,11.903366646600155 17.25247556371589,13.120832431440988 19.129966539993674,14.33829821628182 C17.31952878388202,15.217579038343914 15.307931316545336,15.758674948353914 13.229280629042535,15.893948913174754 C10.144831131781444,15.893948913174754 9.541351896653097,12.376825574199728 12.49169485212866,12.106277593831408 zM24.091906962805893,27.392236886752258 C20.135765248298682,26.310045066732258 16.447836566635885,23.33401758704059 13.76570659327811,20.290353124938505 C15.97846382256644,19.884531230475986 18.12416778096201,19.07288734009768 20.135765248298682,17.9230585883939 C20.873350974485902,17.58487362561516 21.610936751399777,17.11141469801558 22.281469206694254,16.637955770416006 C24.62833292704147,18.66706544563516 27.04224991828147,21.372544944958506 27.980995406420362,24.41620940706059 C28.919740894559254,27.730421798804343 26.371717412260352,28.00096977917267 24.091906962805893,27.392236886752258 z" id="logomark" fill="#000000"/>
            </g>
        </g>
    </g></g></svg>